<svg width="178" height="17" viewBox="0 0 178 17" fill="none" xmlns="http://www.w3.org/2000/svg">
<path d="M81.5631 14.1033H70.082L73.2233 7.68143L73.474 3.81729L75.793 3.09155L78.1121 3.75681L78.3628 7.68143L81.5631 14.1033Z" fill="url(#paint0_linear_2274_1898)"/>
<path d="M0 11.4108V0.512207H11.5387V6.85901H8.40441L11.8567 11.4108H9.71763L5.00117 5.19217H9.81327V2.17904H1.72547V11.4108H0Z" fill="#021D30"/>
<path d="M152.998 11.4108L146.702 0.512207H145.168L138.872 11.4108H140.848L145.935 2.6057L151.022 11.4108H152.998Z" fill="#021D30"/>
<path d="M137.839 11.4108V9.74392H129.809V0.512207H128.083V11.4108H137.839Z" fill="#021D30"/>
<path d="M116.27 11.4108V2.05083H121.115V0.512207H109.833V2.05083H114.677V11.4108H116.27Z" fill="#021D30"/>
<path d="M107.975 11.4108V9.87214H99.6128V6.7308H107.034V5.19218H99.6128V2.05083H107.975V0.512207H98.02V11.4108H107.975Z" fill="#021D30"/>
<path d="M95.83 11.4108V0.512207H94.1046V9.7198L86.5747 0.512207H84.0172V11.4108H85.7427V2.18365L93.2885 11.4108H95.83Z" fill="#021D30"/>
<path d="M82.2678 11.4108L76.6465 0.512207H74.9788L69.3575 11.4108H71.391L74.4322 5.30249C73.2076 5.15432 72.9966 4.60842 74.7453 4.35825L75.1081 3.75816C75.6456 3.64906 75.9241 3.6491 76.4881 3.75816L76.8154 4.35825C78.5562 4.51967 78.5225 5.16828 77.1467 5.31196L80.2342 11.4108H82.2678Z" fill="#021D30"/>
<path d="M67.7579 11.4108V9.74392H59.7279V0.512207H58.0024V11.4108H67.7579Z" fill="#021D30"/>
<path d="M46.3223 11.4108V2.17904H54.1533V5.19217H49.4931V6.85901H55.8787V0.512207H44.5968V11.4108H46.3223Z" fill="#021D30"/>
<path fill-rule="evenodd" clip-rule="evenodd" d="M32.9606 11.4108L37.2967 7.03836V0.512207H25.6166V11.4108H32.9606ZM27.3421 2.17904V9.93613H32.0335L35.5713 6.36878V2.17904H27.3421Z" fill="#021D30"/>
<path d="M23.692 11.4108V10.0003H15.3301V6.73077H22.7511V5.19216H15.3301V2.05083H23.692V0.512207H13.7374V11.4108H23.692Z" fill="#021D30"/>
<path fill-rule="evenodd" clip-rule="evenodd" d="M165.362 0.576316H154.363V11.3466H165.771V7.08395L163.609 6.00001L165.362 5.00514V0.576316ZM155.971 9.7805V2.09757H163.735V4.23172L161.715 5.48625V6.54879L164.177 7.89026V9.7805H155.971Z" fill="#021D30"/>
<path d="M167.878 0.544262H177.91V2.01877H169.404V5.28845H178L178 11.3787H167.968V9.90419H176.474L176.474 6.76296H167.878V0.544262Z" fill="#021D30"/>
<defs>
<linearGradient id="paint0_linear_2274_1898" x1="75.8557" y1="3.78173" x2="75.856" y2="13.5263" gradientUnits="userSpaceOnUse">
<stop stop-color="#B11B24" stop-opacity="0.56"/>
<stop offset="1" stop-color="#B11B24" stop-opacity="0"/>
</linearGradient>
</defs>
</svg>
